{"title":"Grantchester S02E02 x264 RB58.mp4","uid":13835036,"size":525564206,"categoryP":"video","categoryS":"tv_shows","magnet":"?xt=urn:btih:0af89adf4fe4fc00e0e5506999428b272932d34d&amp;dn=Grantchester+S02E02+x264+RB58.mp4&amp;tr=udp%3A%2F%2Ftracker.leechers-paradise.org%3A6969&amp;tr=udp%3A%2F%2Fzer0day.ch%3A1337&amp;tr=udp%3A%2F%2Fopen.demonii.com%3A1337&amp;tr=udp%3A%2F%2Ftracker.coppersurfer.tk%3A6969&amp;tr=udp%3A%2F%2Fexodus.desync.com%3A6969","seeders":1,"leechers":0,"uploader":"RedBaron58","files":1,"time":1457749755,"description":"Grantchester S02E02 x264 mp4\r\n \nhttp://www.imdb.com/title/tt3747572/\r\n\r\nTrailer (Series 1):\r\n\r\n\r\nPlease be patient My intial upload speed is limited.\r\nThank you for your kind comments and feedback on my other torrents, your feedback is welcome.\r\n\r\n\r\nAbout the Episode:\r\nGeordie calls on Sidney for help as he investigates the apparent suicide of a Cambridge lecturer, \r\nwho was found dead after falling from the spire of King's College Chapel. \r\nHis wife and his star pupil, who used to partake in daredevil climbs of the college buildings \r\nalongside his mentor, are convinced he was too happy and content for it to be suicide. \r\nIt appears to be a case of night climbing misadventure, until a student witness comes forward, \r\nleading Sidney and Geordie into a world of espionage and secrets.\r\n \r\nStarring James Norton and Robson Green.\r\n\r\n\r\nI hope you enjoy.\r\n\r\n\r\nTechnical:\r\n\r\nGeneral\r\nComplete name                            : G:Grantchester S02E02 x264 RB58.mp4\r\nFormat                                   : MPEG-4\r\nFormat profile                           : Base Media\r\nCodec ID                                 : isom\r\nFile size                                : 501 MiB\r\nDuration                                 : 45mn 59s\r\nOverall bit rate                         : 1 524 Kbps\r\nWriting application                      : Lavf54.63.104\r\n\r\nVideo\r\nID                                       : 1\r\nFormat                                   : AVC\r\nFormat/Info                              : Advanced Video Codec\r\nFormat profile                           :   \r\nFormat settings, CABAC                   : Yes\r\nFormat settings, ReFrames                : 4 frames\r\nCodec ID                                 : avc1\r\nCodec ID/Info                            : Advanced Video Coding\r\nDuration                                 : 45mn 59s\r\nBit rate                                 : 1 400 Kbps\r\nWidth                                    : 832 pixels\r\nHeight                                   : 468 pixels\r\nDisplay aspect ratio                     : 16:9\r\nFrame rate mode                          : Constant\r\nFrame rate                               : 25.000 fps\r\nColor space                              : YUV\r\nChroma subsampling                       : 4:2:0\r\nBit depth                                : 8 bits\r\nScan type                                : Progressive\r\nBits/(Pixel*Frame)                       : 0.144\r\nStream size                              : 460 MiB (92%)\r\nWriting library                          : x264 core 123 r2189 35cf912\r\nEncoding settings                        : cabac=1 / ref=3 / deblock=1:0:0\r\n\r\nAudio\r\nID                                       : 2\r\nFormat                                   : AAC\r\nFormat/Info                              : Advanced Audio Codec\r\nFormat profile                           : LC\r\nCodec ID                                 : 40\r\nDuration                                 : 45mn 58s\r\nBit rate mode                            : Constant\r\nBit rate                                 : 115 Kbps\r\nChannel(s)                               : 2 channels\r\nChannel positions                        : Front: L R\r\nSampling rate                            : 48.0 KHz\r\nCompression mode                         : Lossy\r\nStream size                              : 37.8 MiB (8%)","torrent":{"xt":"urn:btih:0af89adf4fe4fc00e0e5506999428b272932d34d","amp;dn":"Grantchester+S02E02+x264+RB58.mp4","amp;tr":["udp%3A%2F%2Ftracker.leechers-paradise.org%3A6969","udp%3A%2F%2Fzer0day.ch%3A1337","udp%3A%2F%2Fopen.demonii.com%3A1337","udp%3A%2F%2Ftracker.coppersurfer.tk%3A6969","udp%3A%2F%2Fexodus.desync.com%3A6969"],"infoHash":"0af89adf4fe4fc00e0e5506999428b272932d34d","infoHashBuffer":{"type":"Buffer","data":[10,248,154,223,79,228,252,0,224,229,80,105,153,66,139,39,41,50,211,77]},"announce":[],"urlList":[]}}